<svg width="51" height="64" viewBox="0 0 51 64" fill="none" xmlns="http://www.w3.org/2000/svg">
<g clip-path="url(#clip0)">
<path d="M44.3668 24.5776C44.3678 23.0048 43.9444 21.4612 43.1415 20.1108C42.3386 18.7603 41.1862 17.6535 39.8069 16.9079C38.4275 16.1623 36.8727 15.8059 35.3077 15.8765C33.7426 15.9471 32.2259 16.442 30.9187 17.3088C29.0424 15.6353 26.7561 14.4935 24.2947 14.0008C21.8334 13.5081 19.2857 13.6822 16.9135 14.5052C14.5414 15.3282 12.4303 16.7705 10.7972 18.6838C9.1641 20.5972 8.06791 22.9125 7.62128 25.392C5.47406 25.5852 3.48372 26.6021 2.06432 28.2311C0.644926 29.8601 -0.0942352 31.9758 0.000610829 34.138C0.0954569 36.3002 1.01701 38.3424 2.57355 39.8398C4.13008 41.3372 6.20176 42.1746 8.35759 42.1776H37.6013C39.0815 42.1808 40.5294 41.7438 41.7623 40.9216C42.9952 40.0994 43.9579 38.9289 44.5288 37.558C45.0996 36.187 45.2531 34.6769 44.9699 33.2185C44.6866 31.76 43.9793 30.4184 42.9372 29.3632C43.8722 27.9439 44.3695 26.2792 44.3668 24.5776ZM35.7 19.072C36.6919 19.0724 37.6651 19.3426 38.5162 19.8541C39.3673 20.3655 40.0644 21.099 40.5333 21.9765C41.0022 22.854 41.2254 23.8427 41.1792 24.8374C41.133 25.8322 40.8191 26.7957 40.2708 27.6256C38.821 27.0479 37.2243 26.9548 35.7175 27.36C35.6059 24.6226 34.7057 21.9764 33.1261 19.7424C33.9155 19.3085 34.8 19.0782 35.7 19.072ZM37.6125 38.9776H8.35759C7.66858 38.9897 6.98407 38.8639 6.344 38.6076C5.70393 38.3513 5.12112 37.9695 4.62959 37.4847C4.13806 36.9998 3.74766 36.4215 3.48116 35.7835C3.21466 35.1455 3.0774 34.4606 3.0774 33.7688C3.0774 33.077 3.21466 32.3921 3.48116 31.7541C3.74766 31.1161 4.13806 30.5378 4.62959 30.0529C5.12112 29.568 5.70393 29.1863 6.344 28.9299C6.98407 28.6736 7.66858 28.5479 8.35759 28.56C8.4351 28.5623 8.51235 28.5703 8.58868 28.584L8.86281 28.6176C9.07513 28.6396 9.28969 28.6185 9.49375 28.5556C9.69781 28.4928 9.88721 28.3894 10.0507 28.2517C10.2142 28.114 10.3485 27.9446 10.4456 27.7538C10.5427 27.563 10.6006 27.3545 10.6159 27.1408C10.7652 25.0492 11.5066 23.0439 12.7529 21.3611C13.9991 19.6783 15.6984 18.388 17.6505 17.6421C19.6027 16.8962 21.7265 16.7258 23.7719 17.1509C25.8173 17.576 27.6991 18.5789 29.1959 20.0416C29.26 20.2666 29.3753 20.4736 29.5326 20.6463C29.69 20.819 29.8851 20.9527 30.1027 21.0368C31.0838 22.2413 31.7946 23.6441 32.1865 25.1496C32.5785 26.655 32.6423 28.2275 32.3738 29.76C32.3216 30.0787 32.3666 30.4058 32.5031 30.6984C32.6395 30.9909 32.8609 31.2351 33.1383 31.3989C33.4156 31.5627 33.7358 31.6384 34.0568 31.616C34.3777 31.5936 34.6844 31.4743 34.9366 31.2736C35.69 30.6583 36.6301 30.3196 37.6013 30.3136C38.1681 30.3136 38.7293 30.4256 39.2529 30.6434C39.7766 30.8611 40.2523 31.1803 40.6531 31.5826C41.0539 31.985 41.3718 32.4626 41.5887 32.9883C41.8056 33.514 41.9172 34.0774 41.9172 34.6464C41.9172 35.2154 41.8056 35.7788 41.5887 36.3045C41.3718 36.8301 41.0539 37.3078 40.6531 37.7101C40.2523 38.1125 39.7766 38.4316 39.2529 38.6494C38.7293 38.8671 38.1681 38.9792 37.6013 38.9792L37.6125 38.9776Z" fill="white"/>
<path d="M30.4103 13.888C30.5624 14.2755 30.859 14.5882 31.2372 14.7597C31.6153 14.9311 32.0451 14.9477 32.4352 14.8061C32.8254 14.6644 33.1451 14.3756 33.3265 14.001C33.5079 13.6264 33.5366 13.1955 33.4066 12.8L32.4216 10.08C32.3502 9.88252 32.2406 9.70107 32.0993 9.54606C31.958 9.39105 31.7877 9.26549 31.598 9.17657C31.215 8.99699 30.7766 8.97751 30.3793 9.12242C29.9819 9.26734 29.6582 9.56477 29.4793 9.9493C29.3004 10.3338 29.281 10.7739 29.4254 11.1728L30.4103 13.888Z" fill="white"/>
<path d="M49.7011 24.6401L46.8642 24.1361C46.4478 24.0625 46.0194 24.1579 45.6731 24.4014C45.3269 24.6449 45.0912 25.0165 45.0178 25.4345C44.9445 25.8525 45.0396 26.2826 45.2821 26.6302C45.5246 26.9778 45.8948 27.2145 46.3112 27.2881L49.148 27.7905C49.24 27.8077 49.3334 27.8163 49.4269 27.8161C49.8257 27.8159 50.2098 27.6656 50.5036 27.395C50.7974 27.1243 50.9794 26.753 51.0139 26.3542C51.0483 25.9554 50.9325 25.5582 50.6895 25.2408C50.4465 24.9235 50.0938 24.7092 49.7011 24.6401Z" fill="white"/>
<path d="M45.2768 19.84C45.5569 19.8404 45.8319 19.7658 46.0737 19.624L48.5663 18.184C48.9294 17.9704 49.1936 17.6212 49.3011 17.2127C49.4087 16.8042 49.351 16.3696 49.1405 16.0037C48.9301 15.6378 48.5841 15.3703 48.1779 15.2596C47.7717 15.1489 47.3385 15.204 46.9726 15.4128L44.48 16.8528C44.1762 17.0289 43.9387 17.3008 43.8045 17.6262C43.6702 17.9516 43.6467 18.3123 43.7375 18.6525C43.8283 18.9927 44.0284 19.2934 44.3067 19.5078C44.585 19.7222 44.926 19.8384 45.2768 19.8384V19.84Z" fill="white"/>
<path d="M38.9368 14.8512C39.1337 14.9228 39.3426 14.9547 39.5518 14.9452C39.7609 14.9357 39.9662 14.885 40.1558 14.7958C40.3453 14.7067 40.5156 14.5809 40.6567 14.4257C40.7979 14.2704 40.9072 14.0888 40.9784 13.8912L41.9634 11.1712C42.1022 10.7736 42.0792 10.337 41.8993 9.95637C41.7195 9.57569 41.3973 9.28158 41.0028 9.1379C40.6083 8.99422 40.1733 9.01256 39.7921 9.18895C39.411 9.36533 39.1145 9.68551 38.9671 10.08L37.9822 12.8C37.9106 12.9976 37.8785 13.2074 37.8877 13.4175C37.897 13.6276 37.9473 13.8337 38.036 14.0242C38.1247 14.2147 38.2499 14.3858 38.4044 14.5277C38.559 14.6696 38.7399 14.7795 38.9368 14.8512Z" fill="white"/>
</g>
<defs>
<clipPath id="clip0">
<rect width="51" height="64" fill="white"/>
</clipPath>
</defs>
</svg>
